<svg width="30" height="30" viewBox="0 0 30 30" fill="none" xmlns="http://www.w3.org/2000/svg">
<rect x="6" y="7" width="18" height="10" fill="black" fill-opacity="0.8"/>
<path d="M15 1.875C12.2659 1.8781 9.64468 2.96559 7.71139 4.89889C5.77809 6.83218 4.6906 9.45341 4.6875 12.1875C4.6875 21.0117 14.0625 27.6762 14.4621 27.9551C14.6197 28.0655 14.8075 28.1247 15 28.1247C15.1925 28.1247 15.3803 28.0655 15.5379 27.9551C15.9375 27.6762 25.3125 21.0117 25.3125 12.1875C25.3094 9.45341 24.2219 6.83218 22.2886 4.89889C20.3553 2.96559 17.7341 1.8781 15 1.875ZM15 8.4375C15.7417 8.4375 16.4667 8.65743 17.0834 9.06949C17.7001 9.48154 18.1807 10.0672 18.4645 10.7524C18.7484 11.4377 18.8226 12.1917 18.6779 12.9191C18.5333 13.6465 18.1761 14.3147 17.6516 14.8392C17.1272 15.3636 16.459 15.7208 15.7316 15.8654C15.0042 16.0101 14.2502 15.9359 13.5649 15.652C12.8797 15.3682 12.294 14.8876 11.882 14.2709C11.4699 13.6542 11.25 12.9292 11.25 12.1875C11.25 11.1929 11.6451 10.2391 12.3483 9.53585C13.0516 8.83259 14.0054 8.4375 15 8.4375Z" fill="#846A25"/>
</svg>
